<?xml version="1.0" standalone="no"?>
<!DOCTYPE svg PUBLIC "-//W3C//DTD SVG 20010904//EN"
 "http://www.w3.org/TR/2001/REC-SVG-20010904/DTD/svg10.dtd">
<svg version="1.0" xmlns="http://www.w3.org/2000/svg"
 width="512.000000pt" height="512.000000pt" viewBox="0 0 512.000000 512.000000"
 preserveAspectRatio="xMidYMid meet">

<g transform="translate(0.000000,512.000000) scale(0.100000,-0.100000)"
fill="#000000" stroke="none">
<path d="M2371 5110 c-626 -52 -1179 -307 -1616 -745 -347 -346 -586 -779
-689 -1245 -80 -365 -80 -755 0 -1120 191 -864 846 -1589 1689 -1865 274 -90
511 -128 805 -128 693 0 1315 258 1805 748 407 405 654 908 731 1485 22 167
22 473 0 640 -77 578 -323 1077 -731 1486 -402 403 -913 656 -1475 728 -150
20 -388 27 -519 16z m521 -670 c100 -28 178 -135 178 -244 0 -69 -30 -145 -74
-185 -14 -14 -26 -27 -26 -31 0 -3 24 -12 53 -20 71 -18 250 -91 323 -131 241
-134 440 -315 586 -533 293 -438 363 -976 191 -1469 -216 -623 -789 -1061
-1443 -1105 -679 -46 -1300 308 -1603 914 -198 395 -227 857 -80 1277 90 259
292 566 408 618 144 66 315 -45 315 -203 0 -75 -16 -111 -82 -192 -240 -291
-331 -696 -238 -1059 136 -533 609 -899 1160 -899 587 0 1071 406 1181 992 20
106 16 329 -8 440 -90 415 -368 739 -761 886 -84 32 -85 32 -78 -19 15 -101
-35 -204 -129 -262 -43 -27 -57 -30 -124 -30 -86 0 -134 20 -187 77 -44 46
-333 513 -352 567 -30 87 11 223 82 274 63 45 493 310 531 328 45 21 121 24
177 9z"/>
</g>
</svg>
